<svg xmlns="http://www.w3.org/2000/svg" xmlns:xlink="http://www.w3.org/1999/xlink" viewBox="0 0 180.07 130.89"><defs><mask id="a" x="88.17" y="108.18" width="91.89" height="22.72" maskUnits="userSpaceOnUse"><g transform="translate(0 0)"><polygon points="88.17 108.17 180.07 108.17 180.07 130.89 88.17 130.89 88.17 108.17" fill="#fff" fill-rule="evenodd"/></g></mask><mask id="b" x="121.07" y="0" width="51" height="47.13" maskUnits="userSpaceOnUse"><g transform="translate(0 0)"><polygon points="121.07 0 172.07 0 172.07 47.13 121.07 47.13 121.07 0" fill="#fff" fill-rule="evenodd"/></g></mask></defs><title>Convenience</title><path d="M91.78,104.33a31.52,31.52,0,0,1-14.29,3.46H31.75C24.53,107.79,0,109,0,113.43s15.87,4,20.35,4,21.93-1.15,27.71-1.15,22.36-.87,28-.87,17.9-6.2,17.9-6.2Z" transform="translate(0 0)" fill="#ebe3ff" fill-rule="evenodd"/><path d="M164.77,83c2.34-4.11-11-5-16.2-4s-31,.45-36.48,2.47-10.34,6.28-8.87,8.73,3.29-.73,8.93-2.2c10.25-2.68,24.54,2.2,37.87.5,6.93-.88,12.41-1.43,14.75-5.54" transform="translate(0 0)" fill="#ebe3ff" fill-rule="evenodd"/><g mask="url(#a)"><path d="M180.07,124.58c0-5.93-54.18-15.65-68.93-16s-24.23-1.44-22.83,2.79,48.2,18.08,64.22,19.16,27.54,0,27.54-5.94" transform="translate(0 0)" fill="#ebe3ff" fill-rule="evenodd"/></g><path d="M22.55,78.15C30.14,79.05,38.6,77,44.9,77s36.36-1.72,41.76,4.74c0,0,5.5-.37,6.08-2.53s-52.18-5.1-64.32-5.88-13.46,3.9-5.87,4.8" transform="translate(0 0)" fill="#ebe3ff" fill-rule="evenodd"/><path d="M172.43,110.75c0-.59-.05-1.08,0-1.49.11-2.36-2.47-5.44-2.76-5.78l0,0,0,0c-.34-.49-2.36-3-8.79-3.31-.4,0-.8,0-1.18,0a11.71,11.71,0,0,0-5.66,1.2l-.37.21-.34-.25A17.23,17.23,0,0,0,143,98.08l-.77,0a6.94,6.94,0,0,0-3.15.79l-.43.24-.35-.35c-1-1-3.39-2.72-7.71-2.72l-1,0a7.12,7.12,0,0,0-3.12.82l-.36.2-.33-.24a12.64,12.64,0,0,0-7-2.27,10.32,10.32,0,0,0-1.24.08,9.16,9.16,0,0,0-1.79.38l-.3.1-.26-.17a12.64,12.64,0,0,0-6.76-1.89l-.54,0-1.21-.07-.07-.62c-.14-1.18-.09-4.23,1.45-5.93S112.58,85,116,85a32.07,32.07,0,0,1,6,.65,56.53,56.53,0,0,0,9.89.7c7.84,0,16.67-.91,21-2.18s7-4.8,6.55-9c-.23-2.29-3.08-5.8-7-7.38a10.84,10.84,0,0,0-4.11-.82,11.33,11.33,0,0,0-7.1,2.63l-.38.29-.4-.26a12.74,12.74,0,0,0-7.1-2.25h-.47a7.24,7.24,0,0,0-4.69,1.72l-.37.35-.43-.27a9.76,9.76,0,0,0-4-1.39c-.32,0-.65,0-1,0a7.61,7.61,0,0,0-5.32,2.11l-.39.37-.43-.3A9.13,9.13,0,0,0,112,68.45a7.09,7.09,0,0,0-.79,0,7.16,7.16,0,0,0-5.16,2l-.38.39-.46-.3a4.93,4.93,0,0,0-2.75-.86h-.19a5.67,5.67,0,0,0-4.65,2.94l-.24.51-.53-.15a4.13,4.13,0,0,0-1.08-.15l-.53,0c-1.68.17-2.84,1.52-3.8,3.63h0l.17,0V77l-.49,0-.28,0c-.28,0-1.21.05-1.37.09-2.41.59-3.8,3.22-3.8,7.12v.23c0,7.74,1.46,14.85,6.38,21.15,4.68,6,12.17,7.42,20,8.92l.33,0,.65.12a76.23,76.23,0,0,1,10.23,2.46c12.63,4.34,25.39,6.93,34.12,6.93,5.84,0,10-1.13,12-3.27,3.29-3.53,3.14-7.65,3.05-10.12" transform="translate(0 0)" fill="#fff" fill-rule="evenodd"/><path d="M108.28,62.61c-2.81-8.23-6.16-10.21-6.16-10.21l-.07,0c-3.8-6.62-24.25-3.67-41.7-.75-15.84,2.64-25.44,4.54-30.2,9.06C24.64,66,25,69,25,69.5a15.06,15.06,0,0,0,1.59,4.83s1.48,4.18,8.26,2.56c4.31-1,5.13-3.11,5.13-3.11a7.21,7.21,0,0,0,7,1.52c4.08-1.33,5.1-4,5.1-4s1.84,1.69,6,1.23,5.78-4.73,5.78-4.73,4.13,1.79,7.31.72c5-1.69,6-4.41,6-4.41A3.77,3.77,0,0,0,82,65.92c5-1.42,5.28-3.12,5.28-3.12.11.93-1.44,3.65-5,5.61C70.64,74.94,43.12,84.1,31.84,84.78c-14.68.89-21.23,7.94-22.53,12.52-.8,2.8-.3,4,.91,4.3l1.18,5.51A5.87,5.87,0,0,0,17,113c5.72.55,7.68-3.37,7.68-3.37a10.25,10.25,0,0,0,7.33.66,12.91,12.91,0,0,0,6.77-4.81S42.33,108,46,107.09a10.06,10.06,0,0,0,5.6-4.14,11,11,0,0,0,6.4-1.6,20.25,20.25,0,0,0,4.39-4.13s5.72.86,8-.39a34.14,34.14,0,0,0,5.15-3.94,12.87,12.87,0,0,0,7.76-.79,7.58,7.58,0,0,0,4.19-5.27s6.84,2.2,10.42-.07S102,79.49,102,79.49,106.4,80,108.4,78s1.92-4.67,2-6a46.63,46.63,0,0,0-2.16-9.38" transform="translate(0 0)" fill="#fff" fill-rule="evenodd"/><path d="M106.49,90.78a.88.88,0,0,1-.88-.78,4.87,4.87,0,0,1,1.61-3.88c2.5-2.36,7.41-2.91,14.57-1.65,8,1.4,24.59.33,30.76-1.45,3.92-1.14,6.13-4.08,5.76-7.69-.16-1.68-2.65-4.92-6.3-6.39-2.58-1-6.52-1.51-10.71,2.08a.89.89,0,1,1-1.16-1.35c3.8-3.25,8.25-4.09,12.53-2.37s7.16,5.4,7.41,7.85c.45,4.45-2.32,8.21-7,9.57-6.47,1.88-23.25,3-31.56,1.5-8.14-1.44-11.56-.17-13,1.16a3.08,3.08,0,0,0-1.1,2.42.89.89,0,0,1-.8,1h-.09" transform="translate(0 0)" fill="#5700ff" fill-rule="evenodd"/><path d="M157.09,124.81c-8.13,0-19.63-2-34.21-7a80.24,80.24,0,0,0-10.74-2.57c-7.93-1.52-15.43-3-20.36-9.2A32.33,32.33,0,0,1,85.14,90a.87.87,0,0,1,.76-1,.89.89,0,0,1,1,.76A30.65,30.65,0,0,0,93.17,105c4.52,5.72,11.7,7.1,19.31,8.56a80.94,80.94,0,0,1,11,2.63c29.4,10,42.51,7,45.33,4,3.57-3.78,2.7-10.63,2.69-10.7a.89.89,0,0,1,.76-1,.88.88,0,0,1,1,.76c0,.31,1,7.75-3.16,12.15-2,2.11-6.37,3.43-13,3.43" transform="translate(0 0)" fill="#5700ff" fill-rule="evenodd"/><path d="M98.19,88.44a.86.86,0,0,1-.75-.43s-.16-.26-.43-.59a.89.89,0,0,1,1.4-1.1,9.17,9.17,0,0,1,.54.78.87.87,0,0,1-.3,1.21.84.84,0,0,1-.46.13" transform="translate(0 0)" fill="#5700ff" fill-rule="evenodd"/><path d="M89.34,90.78a.89.89,0,0,1-.86-.65,7.4,7.4,0,0,1-.19-2.41.87.87,0,0,1,1-.8.89.89,0,0,1,.8,1,5.77,5.77,0,0,0,.13,1.78.88.88,0,0,1-.62,1.09l-.23,0" transform="translate(0 0)" fill="#5700ff" fill-rule="evenodd"/><path d="M94.28,98.14a.9.9,0,0,1-.85-.63c-.05-.15-1.12-3.71.61-6.22A5.65,5.65,0,0,1,98.63,89c5.12-.34,8.42,3.82,8.56,4a.89.89,0,1,1-1.4,1.09s-2.86-3.57-7.05-3.31a4,4,0,0,0-3.24,1.5c-1.22,1.77-.38,4.66-.37,4.69a.89.89,0,0,1-.59,1.11.82.82,0,0,1-.26,0" transform="translate(0 0)" fill="#5700ff" fill-rule="evenodd"/><path d="M102.34,100.82a.89.89,0,0,1-.84-.6c0-.12-1-3,.54-5.27,1-1.46,2.78-2.24,5.27-2.34a13,13,0,0,1,8.19,2.29.88.88,0,1,1-1.09,1.39,11.75,11.75,0,0,0-7-1.9c-1.89.07-3.19.59-3.86,1.56-1,1.5-.33,3.68-.33,3.71a.88.88,0,0,1-.56,1.12.9.9,0,0,1-.28,0" transform="translate(0 0)" fill="#5700ff" fill-rule="evenodd"/><path d="M112.42,102.84a.9.9,0,0,1-.83-.57,6.65,6.65,0,0,1,.34-5.32c.93-1.55,2.66-2.48,5.14-2.77a13.15,13.15,0,0,1,9.26,2.74.88.88,0,0,1,.11,1.25.9.9,0,0,1-1.25.11A11.47,11.47,0,0,0,117.27,96c-1.9.22-3.19.87-3.83,1.92a4.94,4.94,0,0,0-.19,3.77.87.87,0,0,1-.51,1.14.91.91,0,0,1-.32.06" transform="translate(0 0)" fill="#5700ff" fill-rule="evenodd"/><path d="M123.85,104.86a.89.89,0,0,1-.87-.69c0-.15-.79-3.64,1.11-6.16a6.59,6.59,0,0,1,5.18-2.42c7.1-.37,9.74,3.44,9.85,3.6a.89.89,0,0,1-.25,1.23.9.9,0,0,1-1.23-.24c-.08-.13-2.25-3.15-8.27-2.81a4.92,4.92,0,0,0-3.86,1.7c-1.41,1.86-.8,4.68-.8,4.71a.89.89,0,0,1-.67,1.06l-.19,0" transform="translate(0 0)" fill="#5700ff" fill-rule="evenodd"/><path d="M136.61,106.87a.88.88,0,0,1-.86-.69c0-.15-.81-3.73,1.13-6.25a6.49,6.49,0,0,1,5.17-2.32c7.62-.3,11.91,3.53,12.09,3.69a.89.89,0,0,1,.06,1.25.9.9,0,0,1-1.26.06,16.17,16.17,0,0,0-10.82-3.23A4.78,4.78,0,0,0,138.3,101c-1.44,1.85-.82,4.76-.82,4.78a.89.89,0,0,1-.67,1.06.68.68,0,0,1-.2,0" transform="translate(0 0)" fill="#5700ff" fill-rule="evenodd"/><path d="M151.27,107.88a.88.88,0,0,1-.87-.75,6.28,6.28,0,0,1,1.54-4.89c1.77-2,4.81-2.83,9-2.61,7.27.39,9.3,3.5,9.39,3.64a.89.89,0,0,1-.28,1.22.9.9,0,0,1-1.23-.28s-1.73-2.48-8-2.81c-3.61-.2-6.23.51-7.6,2a4.51,4.51,0,0,0-1.11,3.43.88.88,0,0,1-.74,1h-.14" transform="translate(0 0)" fill="#5700ff" fill-rule="evenodd"/><path d="M118.91,75a.88.88,0,0,1-.81-.52,8.1,8.1,0,0,0-8.34-4.82.89.89,0,0,1-.21-1.76,9.86,9.86,0,0,1,10.17,5.85.89.89,0,0,1-.44,1.17,1,1,0,0,1-.37.08" transform="translate(0 0)" fill="#5700ff" fill-rule="evenodd"/><path d="M130.55,74.22a.88.88,0,0,1-.78-.46A9.12,9.12,0,0,0,122.92,69,6.72,6.72,0,0,0,117,71.3a.89.89,0,1,1-1.34-1.17,8.45,8.45,0,0,1,7.46-2.86,10.94,10.94,0,0,1,8.22,5.64.89.89,0,0,1-.35,1.21.94.94,0,0,1-.43.1" transform="translate(0 0)" fill="#5700ff" fill-rule="evenodd"/><path d="M143,73.4a.88.88,0,0,1-.67-.31,12.35,12.35,0,0,0-9.7-4.46,5.66,5.66,0,0,0-4.38,1.84.89.89,0,1,1-1.44-1,7.28,7.28,0,0,1,5.75-2.57,14,14,0,0,1,11.11,5.07.89.89,0,0,1-.09,1.25.86.86,0,0,1-.58.22" transform="translate(0 0)" fill="#5700ff" fill-rule="evenodd"/><path d="M63.1,63.84l-.44.58a.79.79,0,0,0,.4.12l.06-.52Zm-.05.78a1,1,0,0,1-.51-.16.9.9,0,0,1-.38-.8,1,1,0,0,1,.63-.85l.11,0a1,1,0,0,1,.82.22.88.88,0,0,1,.29,1,.91.91,0,0,1-.78.55l-.18,0Zm-23.61,5.3-.58.47a.85.85,0,0,0,.72.15Zm-.07.82a.87.87,0,0,1-.48-.15.89.89,0,0,1-.4-.84.86.86,0,0,1,.64-.93,1.05,1.05,0,0,1,1.11.45.89.89,0,0,1-.69,1.45l-.18,0Z" transform="translate(0 0)" fill="#5700ff" fill-rule="evenodd"/><path d="M76.51,56.55c4.22,0,7.71.59,9.7,2.07A4.2,4.2,0,0,1,88,62.05c0,9.3-45.88,23.14-57.27,23.14C28.23,85.19,9.81,88,9.81,98.55c0,2,.64,2,1.1,2,1.75,0,4.54-1.83,7.77-4,4.4-2.9,9.89-6.5,15.88-7.56C67.35,83.24,102,64.53,102,52.61c0-2-4-4-11.7-4-10.45,0-64.21,6.71-64.21,19.28,0,1.73.64,2.32,2.54,2.32,2.41,0,6-2.25,9.54-4.43,2.75-1.71,5.35-3.32,7.49-3.94,7.76-2.28,21.18-5.34,30.83-5.34M10.91,102.3C9.6,102.3,8,101.65,8,98.55,8,86.42,27.89,83.42,30.72,83.42c12.73,0,55.49-14.38,55.49-21.37a2.35,2.35,0,0,0-1.07-2c-4.9-3.68-23.73-.92-39,3.54a34.52,34.52,0,0,0-7,3.75C35.41,69.65,31.57,72,28.65,72s-4.32-1.37-4.32-4.09c0-6.38,10-11.82,29.77-16.14C69,48.53,85.37,46.89,90.32,46.89c8.19,0,13.47,2.24,13.47,5.72,0,14-37.89,32.69-68.92,38.15-5.64,1-10.95,4.48-15.22,7.29-3.61,2.37-6.46,4.25-8.74,4.25" transform="translate(0 0)" fill="#5700ff" fill-rule="evenodd"/><path d="M18.61,114.26c-5.25,0-8.34-5.56-8.49-5.82a.89.89,0,0,1,1.56-.85c0,.06,3.31,5.9,8.31,4.74s3.8-9,3.79-9a.89.89,0,0,1,1.76-.26c.06.39,1.31,9.5-5.15,11a7.44,7.44,0,0,1-1.78.21" transform="translate(0 0)" fill="#5700ff" fill-rule="evenodd"/><path d="M29.72,111.77a14.82,14.82,0,0,1-5.43-1.08.89.89,0,1,1,.74-1.62c.31.14,7.79,3.41,11.78-3,2.84-4.56-.59-11.17-.63-11.24A.89.89,0,0,1,37.75,94c.16.3,4,7.57.56,13a9.62,9.62,0,0,1-8.59,4.75" transform="translate(0 0)" fill="#5700ff" fill-rule="evenodd"/><path d="M44,107.57a18.45,18.45,0,0,1-5.65-1,.9.9,0,0,1-.54-1.14.89.89,0,0,1,1.14-.53c.08,0,8.35,2.91,11.07-2.17,1.75-3.29-.66-7.87-.69-7.92A.89.89,0,1,1,50.88,94c.12.22,2.9,5.46.69,9.6-1.68,3.15-4.79,4-7.58,4" transform="translate(0 0)" fill="#5700ff" fill-rule="evenodd"/><path d="M53.12,104.13a12.53,12.53,0,0,1-1.38-.07A.89.89,0,0,1,52,102.3c.29,0,7.16.94,9.34-4.79,1.18-3.1-1.49-6.33-1.52-6.36A.89.89,0,0,1,61.17,90c.14.16,3.37,4,1.82,8.14-2,5.32-7.34,6-9.87,6" transform="translate(0 0)" fill="#5700ff" fill-rule="evenodd"/><path d="M64,98.8c-1.1,0-1.85-.08-2-.09a.89.89,0,1,1,.19-1.77c.1,0,10.29,1,12.29-5.08A6.06,6.06,0,0,0,73,85.49.9.9,0,0,1,73,84.24a.88.88,0,0,1,1.25-.08,7.85,7.85,0,0,1,2,8.26C74.37,98.07,67.48,98.8,64,98.8" transform="translate(0 0)" fill="#5700ff" fill-rule="evenodd"/><path d="M78,94.39a20.86,20.86,0,0,1-3.22-.24.89.89,0,1,1,.3-1.75c.06,0,6,1,9.18-1.39a4.7,4.7,0,0,0,1.84-3.46,14.74,14.74,0,0,0-2.21-9.27A.89.89,0,0,1,84.07,77a.87.87,0,0,1,1.23.2,16.39,16.39,0,0,1,2.53,10.48,6.43,6.43,0,0,1-2.52,4.7c-2.11,1.61-5.08,2-7.34,2" transform="translate(0 0)" fill="#5700ff" fill-rule="evenodd"/><path d="M92.53,88.7A23.86,23.86,0,0,1,86.79,88a.9.9,0,0,1-.61-1.1.88.88,0,0,1,1.09-.61c.09,0,9.45,2.55,13-2.45,2.15-3.07-1-12.12-2.35-15.35a.89.89,0,0,1,1.64-.7c.54,1.28,5.27,12.64,2.16,17.06-2.18,3.12-6,3.89-9.16,3.89" transform="translate(0 0)" fill="#5700ff" fill-rule="evenodd"/><path d="M103.64,80.92a7.49,7.49,0,0,1-1.59-.16.89.89,0,0,1,.37-1.74c.22,0,5.35,1,6.7-4.17,1.07-4.12-2.79-14.55-4.37-18.23a.89.89,0,0,1,.47-1.16.9.9,0,0,1,1.17.46c.24.57,5.89,13.83,4.45,19.38a7.09,7.09,0,0,1-7.2,5.62" transform="translate(0 0)" fill="#5700ff" fill-rule="evenodd"/><path d="M32.58,77.63q-.6,0-1.26-.06a6.83,6.83,0,0,1-5.73-4.29.89.89,0,0,1,1.67-.6,5,5,0,0,0,4.21,3.12c5.66.48,8-2.85,8-2.88a.88.88,0,0,1,1.23-.24A.89.89,0,0,1,41,73.91c-.11.16-2.6,3.72-8.38,3.72" transform="translate(0 0)" fill="#5700ff" fill-rule="evenodd"/><path d="M44.61,76.34a6,6,0,0,1-1.81-.28c-4-1.27-4.28-6.16-4.29-6.37a.89.89,0,1,1,1.78-.08s.23,3.86,3.05,4.76c3.86,1.22,8.6-3.74,8.64-3.79a.9.9,0,0,1,1.26,0,.88.88,0,0,1,0,1.25c-.2.21-4.34,4.54-8.67,4.54" transform="translate(0 0)" fill="#5700ff" fill-rule="evenodd"/><path d="M56.84,73.06A8.74,8.74,0,0,1,55.72,73a5.79,5.79,0,0,1-5.37-6,.88.88,0,0,1,.93-.85.89.89,0,0,1,.85.93,4,4,0,0,0,3.81,4.18c5.14.64,7.6-4.39,7.71-4.6a.89.89,0,0,1,1.6.76c0,.06-2.75,5.67-8.41,5.67" transform="translate(0 0)" fill="#5700ff" fill-rule="evenodd"/><path d="M68.59,69.23A11.17,11.17,0,0,1,66.42,69C63,68.36,62.15,65,62.15,63.24a.89.89,0,0,1,1.78,0c0,.15,0,3.51,2.83,4,6.17,1.19,9.89-4.15,9.92-4.21a.91.91,0,0,1,.74-.39h0a.89.89,0,0,1,.74.4c.06.08,1.52,2.17,3.79,1.52a.89.89,0,0,1,.48,1.71,5,5,0,0,1-5-1.36,12,12,0,0,1-8.86,4.29Z" transform="translate(0 0)" fill="#5700ff" fill-rule="evenodd"/><path d="M121.76,46.43V8.32A7.63,7.63,0,0,1,129.39.7h34.36a7.62,7.62,0,0,1,7.62,7.62V32.47a7.62,7.62,0,0,1-7.62,7.62H132.24a11.84,11.84,0,0,0-10.48,6.34" transform="translate(0 0)" fill="#ebe3ff" fill-rule="evenodd"/><g mask="url(#b)"><path d="M129.39,1.39a6.94,6.94,0,0,0-6.93,6.93V44.1a12.47,12.47,0,0,1,9.78-4.7h31.51a6.94,6.94,0,0,0,6.93-6.93V8.32a6.94,6.94,0,0,0-6.93-6.93Zm-7.63,45.74-.16,0a.71.71,0,0,1-.53-.68V8.32A8.33,8.33,0,0,1,129.39,0h34.36a8.33,8.33,0,0,1,8.32,8.32V32.47a8.33,8.33,0,0,1-8.32,8.32H132.24a11.11,11.11,0,0,0-9.86,6,.7.7,0,0,1-.62.37Z" transform="translate(0 0)" fill="#5700ff" fill-rule="evenodd"/></g><path d="M143.21,23.09a2,2,0,1,1-2,2,2.06,2.06,0,0,1,2-2m0-8.5a2,2,0,1,1-2,2,2.05,2.05,0,0,1,2-2" transform="translate(0 0)" fill="#5700ff" fill-rule="evenodd"/><path d="M146.73,11.2l2-1.51a17.32,17.32,0,0,1,0,22.19l-2-1.56a17.75,17.75,0,0,0,2.56-9.54,18,18,0,0,0-2.56-9.58" transform="translate(0 0)" fill="#5700ff" fill-rule="evenodd"/></svg>