<svg xmlns="http://www.w3.org/2000/svg" xmlns:xlink="http://www.w3.org/1999/xlink" viewBox="0 0 134.64 119.79"><defs><mask id="a" x="0" y="0" width="134.64" height="119.79" maskUnits="userSpaceOnUse"><g transform="translate(0 0)"><polygon points="0 0 134.64 0 134.64 119.79 0 119.79 0 0" fill="#fff" fill-rule="evenodd"/></g></mask></defs><title>Confidence</title><g mask="url(#a)"><path d="M118.84,2.87c-3-9.85-45.2,7.87-67.93,19.88C29.51,34.05-4.69,54.14.54,65.27s30.09-12.46,37.19-2.63-28,38.19-22.81,48.66,25.58-4.76,32.77-1.51,2.33,7,6.72,9.74,36.34-16.74,49.92-28.09c8.06-6.74,35.81-31.93,29.34-41.14-4.51-6.43-13,3.05-19-2.93-8.44-8.52,7.09-34.65,4.13-44.5" transform="translate(0 0)" fill="#ebe3ff" fill-rule="evenodd"/></g><path d="M22.14,32.92l12.24,71.2,34.46-5.93L51,97.24a.64.64,0,0,1-.61-.68l.61-12L38,86.83a.65.65,0,0,1-.75-.53l-8.55-48a.66.66,0,0,1,.1-.49.65.65,0,0,1,.42-.26l24.38-4.34.3-5.73Zm11.71,72.6a.63.63,0,0,1-.37-.12.66.66,0,0,1-.27-.42L20.75,32.5a.66.66,0,0,1,.11-.49.65.65,0,0,1,.42-.26L54.5,26a.65.65,0,0,1,.76.67l-.36,7.06a.67.67,0,0,1-.54.61L30.11,38.69l8.32,46.75L51.58,83.1a.63.63,0,0,1,.54.15.64.64,0,0,1,.22.52L51.72,96l23,1.22a.67.67,0,0,1,.62.62.64.64,0,0,1-.54.67l-40.81,7Z" transform="translate(0 0)" fill="#5700ff" fill-rule="evenodd"/><path d="M109.06,32.75l-48.72-2.3L58,79.18l48.72,2.3ZM54.58,23.23l60.89,2.88L112,99.57,51.11,96.69Z" transform="translate(0 0)" fill="#fff" fill-rule="evenodd"/><path d="M58.36,78.56l47.43,2.24L108,33.37,60.6,31.13Zm48.05,3.57h0l-48.73-2.3a.62.62,0,0,1-.45-.21.71.71,0,0,1-.17-.47l2.31-48.72A.64.64,0,0,1,60,29.8h0l48.72,2.3a.65.65,0,0,1,.62.68l-2.3,48.73a.66.66,0,0,1-.65.62Zm-55,13.94L111,98.89l3.41-72.16L54.85,23.91Zm60.21,4.15h0L50.73,97.34a.64.64,0,0,1-.62-.68L53.58,23.2a.7.7,0,0,1,.21-.45.68.68,0,0,1,.47-.17l60.89,2.88a.64.64,0,0,1,.62.68L112.3,99.6a.7.7,0,0,1-.21.45.66.66,0,0,1-.44.17Z" transform="translate(0 0)" fill="#5700ff" fill-rule="evenodd"/><path d="M51.72,96l59.58,3L115,26.87l-59.58-3Zm60.19,4.38h0L51,97.24a.7.7,0,0,1-.45-.21.67.67,0,0,1-.16-.47l3.75-73.45a.66.66,0,0,1,.21-.45.68.68,0,0,1,.47-.17L115.7,25.6a.65.65,0,0,1,.61.69l-3.75,73.44a.64.64,0,0,1-.65.62Z" transform="translate(0 0)" fill="#5700ff" fill-rule="evenodd"/><path d="M38.15,30.16l-.14,0a.65.65,0,0,1-.49-.78l1.84-7.94a.62.62,0,0,1,.29-.4.6.6,0,0,1,.49-.08l14.7,3.4a.65.65,0,0,1-.29,1.27L40.48,22.35l-1.69,7.3a.65.65,0,0,1-.64.51" transform="translate(0 0)" fill="#5700ff" fill-rule="evenodd"/><path d="M32.2,95.9h-.15l-8.8-2a.68.68,0,0,1-.41-.29.66.66,0,0,1-.08-.49l4.85-21a.65.65,0,0,1,1.27.3L24.17,92.73l8.18,1.89a.65.65,0,0,1-.15,1.28" transform="translate(0 0)" fill="#5700ff" fill-rule="evenodd"/><path d="M82.78,107.62h-.15l-26-6a.65.65,0,1,1,.29-1.27l25.42,5.89,1.78-7.68a.65.65,0,0,1,1.27.29l-1.93,8.32a.62.62,0,0,1-.29.4.59.59,0,0,1-.34.1" transform="translate(0 0)" fill="#5700ff" fill-rule="evenodd"/><path d="M33.85,105.52a.63.63,0,0,1-.37-.12.66.66,0,0,1-.27-.42L20.75,32.5a.66.66,0,0,1,.11-.49.65.65,0,0,1,.42-.26L54.5,26a.64.64,0,0,1,.75.53.65.65,0,0,1-.53.75l-32.57,5.6,12.23,71.2,40.17-6.91a.66.66,0,0,1,.75.53.65.65,0,0,1-.53.75l-40.81,7h-.11" transform="translate(0 0)" fill="#5700ff" fill-rule="evenodd"/><path d="M58.71,78.48l47.42,2.42,2.42-47.41L61.13,31.07Zm48,3.76h0L58,79.75a.65.65,0,0,1-.61-.68l2.49-48.72a.62.62,0,0,1,.21-.45.73.73,0,0,1,.47-.17l48.71,2.49a.66.66,0,0,1,.62.69l-2.49,48.71a.65.65,0,0,1-.65.62Z" transform="translate(0 0)" fill="#5700ff" fill-rule="evenodd"/><path d="M37.91,86.84a.64.64,0,0,1-.64-.54l-8.55-48a.66.66,0,0,1,.1-.49.65.65,0,0,1,.42-.26L54.13,33.1a.65.65,0,1,1,.23,1.27L30.11,38.69l8.32,46.75L51.58,83.1a.65.65,0,1,1,.23,1.27L38,86.83h-.11" transform="translate(0 0)" fill="#5700ff" fill-rule="evenodd"/><path d="M83.85,65.68l-.72,0a13.75,13.75,0,0,1-10.55-5.91.65.65,0,0,1,.2-.89.66.66,0,0,1,.9.2,12.35,12.35,0,0,0,19.53,1,.65.65,0,0,1,.91-.11.64.64,0,0,1,.12.91,13.8,13.8,0,0,1-10.39,4.82" transform="translate(0 0)" fill="#5700ff" fill-rule="evenodd"/><path d="M81.71,50.63a.62.62,0,0,1-.52-.27s-1.55-2.08-3.44-2.18c-1.57-.11-3.16,1.29-3.64,1.82a.64.64,0,0,1-.91,0,.65.65,0,0,1,0-.92c.08-.09,2.13-2.36,4.67-2.25s4.34,2.61,4.42,2.72a.65.65,0,0,1-.53,1" transform="translate(0 0)" fill="#5700ff" fill-rule="evenodd"/><path d="M93.85,51.25a.65.65,0,0,1-.53-.27s-1.54-2.08-3.43-2.18c-1.59-.12-3.16,1.29-3.64,1.82a.65.65,0,0,1-.92.05.66.66,0,0,1,0-.92c.09-.09,2.15-2.37,4.68-2.25s4.34,2.61,4.42,2.72a.65.65,0,0,1-.53,1" transform="translate(0 0)" fill="#5700ff" fill-rule="evenodd"/></svg>