<svg xmlns="http://www.w3.org/2000/svg" xmlns:xlink="http://www.w3.org/1999/xlink" viewBox="0 0 212.27 95.27"><defs><mask id="a" x="115.46" y="0" width="50.46" height="16.85" maskUnits="userSpaceOnUse"><g transform="translate(0 0)"><polygon points="115.46 0 165.92 0 165.92 16.85 115.46 16.85 115.46 0" fill="#fff" fill-rule="evenodd"/></g></mask><mask id="b" x="0" y="65.79" width="212.27" height="29.48" maskUnits="userSpaceOnUse"><g transform="translate(0 0)"><polygon points="0 65.79 212.27 65.79 212.27 95.27 0 95.27 0 65.79" fill="#fff" fill-rule="evenodd"/></g></mask></defs><title>Affordability</title><path d="M130.71,14.65c18.82-3.37,21.71-14,21.71-14l12.37,15-14.86-2.88Z" transform="translate(0 0)" fill="#fff" fill-rule="evenodd"/><g mask="url(#a)"><path d="M165.27,16.85a.63.63,0,0,1-.5-.24L152.48,1.74c-8.75,13-18.64,13.57-30.07,14.27-2,.12-4.1.25-6.24.45a.66.66,0,0,1-.71-.59.65.65,0,0,1,.59-.7c2.16-.2,4.26-.33,6.28-.46,11.76-.72,21-1.3,29.55-14.41a.63.63,0,0,1,.5-.3.65.65,0,0,1,.54.24l12.85,15.54a.66.66,0,0,1-.08.92.68.68,0,0,1-.42.15" transform="translate(0 0)" fill="#5700ff" fill-rule="evenodd"/></g><g mask="url(#b)"><path d="M212.27,76.79c0,3.76-12.17,8.82-38.46,8.82s-42.63,9.66-80.64,9.66C59.14,95.27,0,85.15,0,80.06c0-3.69,26.48-5.28,26.48-10.65,0-4.78,11.57-3.46,11.57-3.46l-.75,6.8,91.16,14.58,14.78-.86.39-7.63,11.67,1.71,13.22-7.85V66.81c25.38,0,43.75,6.22,43.75,10" transform="translate(0 0)" fill="#ebe3ff" fill-rule="evenodd"/></g><polygon points="146.41 25.32 143.24 86.47 128.46 87.33 132.41 20.77 146.41 25.32" fill="#ebe3ff" fill-rule="evenodd"/><polygon points="128.46 87.33 37.3 72.75 42.51 25.35 132.41 20.77 128.46 87.33" fill="#fff" fill-rule="evenodd"/><path d="M135.67,56.92h0a.66.66,0,0,1-.62-.68l1.49-28.14a.66.66,0,0,1,.68-.61.65.65,0,0,1,.62.68l-1.49,28.14a.65.65,0,0,1-.65.61" transform="translate(0 0)" fill="#5700ff" fill-rule="evenodd"/><path d="M139.27,74.1h0a.65.65,0,0,1-.62-.68l1.42-27a.67.67,0,0,1,.68-.61.65.65,0,0,1,.62.68l-1.42,27a.65.65,0,0,1-.65.61" transform="translate(0 0)" fill="#5700ff" fill-rule="evenodd"/><polygon points="155.3 64.85 155.3 80.55 168.52 72.7 168.52 58.66 155.3 64.85" fill="#ebe3ff" fill-rule="evenodd"/><polygon points="159.23 30.16 159.23 47.51 166.41 44.82 166.41 30.16 159.23 30.16" fill="#ebe3ff" fill-rule="evenodd"/><polygon points="149.93 12.74 149.93 30.09 168.52 30.16 168.52 16.94 149.93 12.74" fill="#ebe3ff" fill-rule="evenodd"/><path d="M128.46,88h-.1L37.2,73.39a.64.64,0,0,1-.54-.71l5.2-47.4a.66.66,0,0,1,.62-.58l89.89-4.58a.7.7,0,0,1,.5.2.65.65,0,0,1,.19.49L129.65,78a.67.67,0,0,1-.69.61.66.66,0,0,1-.61-.69l3.36-56.47L43.1,26,38,72.21l90.54,14.48a.64.64,0,0,1,.54.74.65.65,0,0,1-.64.55" transform="translate(0 0)" fill="#5700ff" fill-rule="evenodd"/><path d="M128.46,88a.65.65,0,0,1,0-1.3l14.2-.83,3.11-60.07-13.52-4.39a.65.65,0,1,1,.4-1.23l14,4.54a.66.66,0,0,1,.45.65L143.89,86.5a.65.65,0,0,1-.61.61L128.5,88h0" transform="translate(0 0)" fill="#5700ff" fill-rule="evenodd"/><path d="M155.3,81.2h-.09l-11.67-1.7a.65.65,0,1,1,.19-1.29l10.92,1.6V65.49l-10.29-.21a.65.65,0,0,1,0-1.3h0l10.94.22a.65.65,0,0,1,.63.65v15.7a.64.64,0,0,1-.22.49.67.67,0,0,1-.43.16" transform="translate(0 0)" fill="#5700ff" fill-rule="evenodd"/><path d="M156,65.27V79.41l11.92-7.08V59.68ZM155.3,81.2a.62.62,0,0,1-.32-.09.65.65,0,0,1-.33-.56V64.85a.66.66,0,0,1,.38-.59l13.21-6.19a.64.64,0,0,1,.63,0,.64.64,0,0,1,.3.55v14a.65.65,0,0,1-.32.56l-13.21,7.85a.69.69,0,0,1-.34.09Z" transform="translate(0 0)" fill="#5700ff" fill-rule="evenodd"/><path d="M168.52,30.81H149.93a.66.66,0,0,1-.65-.65V23.41a.65.65,0,0,1,1.3,0v6.1h17.29V21.75a.65.65,0,1,1,1.3,0v8.41a.65.65,0,0,1-.65.65" transform="translate(0 0)" fill="#5700ff" fill-rule="evenodd"/><path d="M168.52,20a.65.65,0,0,1-.65-.65v-1.9l-17.29-4v5.2a.65.65,0,0,1-1.3,0v-6a.63.63,0,0,1,.25-.51.64.64,0,0,1,.55-.13l18.59,4.28a.65.65,0,0,1,.5.63v2.42a.65.65,0,0,1-.65.65" transform="translate(0 0)" fill="#5700ff" fill-rule="evenodd"/><path d="M159.23,48.16a.66.66,0,0,1-.65-.65V30.16a.65.65,0,0,1,1.3,0V46.57l5.88-2.2V30.16a.65.65,0,0,1,1.3,0V44.82a.65.65,0,0,1-.42.61l-7.18,2.68a.68.68,0,0,1-.23,0" transform="translate(0 0)" fill="#5700ff" fill-rule="evenodd"/><path d="M56,24.76a.65.65,0,0,1-.65-.65v-2.7a.64.64,0,0,1,.59-.64l94-8.75a.65.65,0,1,1,.12,1.29L56.62,22v2.1a.65.65,0,0,1-.65.65" transform="translate(0 0)" fill="#5700ff" fill-rule="evenodd"/><path d="M146.4,31.05a.65.65,0,0,1-.64-.61.64.64,0,0,1,.6-.69l3.53-.24a.65.65,0,0,1,.09,1.3l-3.53.24h0" transform="translate(0 0)" fill="#5700ff" fill-rule="evenodd"/><path d="M159.23,48.16h0L145.26,47a.65.65,0,0,1,.11-1.3l13.91,1.12a.65.65,0,0,1-.05,1.3" transform="translate(0 0)" fill="#5700ff" fill-rule="evenodd"/><path d="M164.24,61.32a.65.65,0,0,1-.65-.65v-15a.65.65,0,1,1,1.29,0v15a.65.65,0,0,1-.64.65" transform="translate(0 0)" fill="#5700ff" fill-rule="evenodd"/><path d="M144.52,62.4a.66.66,0,0,1-.65-.62.64.64,0,0,1,.61-.68L164.2,60a.67.67,0,0,1,.68.61.66.66,0,0,1-.61.69L144.55,62.4h0" transform="translate(0 0)" fill="#5700ff" fill-rule="evenodd"/><path d="M44.68,59.2h-.07a.67.67,0,0,1-.58-.72l2.09-19.72a.65.65,0,0,1,.72-.57.64.64,0,0,1,.57.71L45.33,58.62a.66.66,0,0,1-.65.58" transform="translate(0 0)" fill="#5700ff" fill-rule="evenodd"/><path d="M54.44,33.17a.65.65,0,0,1-.65-.63.63.63,0,0,1,.62-.67l14.73-.55a.65.65,0,1,1,0,1.3l-14.73.55h0" transform="translate(0 0)" fill="#5700ff" fill-rule="evenodd"/><path d="M93.16,31.29a.64.64,0,0,1-.64-.62.65.65,0,0,1,.62-.68l20.37-.76a.65.65,0,1,1,0,1.3l-20.37.76h0" transform="translate(0 0)" fill="#5700ff" fill-rule="evenodd"/><path d="M120.26,66.41h-.05a.65.65,0,0,1-.6-.7l1.81-25.47a.65.65,0,0,1,1.3.09L120.9,65.8a.64.64,0,0,1-.64.61" transform="translate(0 0)" fill="#5700ff" fill-rule="evenodd"/><path d="M109.26,75.44h-.08l-21.7-2.68a.65.65,0,1,1,.16-1.29l21.7,2.68a.65.65,0,0,1-.08,1.29" transform="translate(0 0)" fill="#5700ff" fill-rule="evenodd"/><path d="M64.36,69.17h-.08L48.45,67.08a.65.65,0,0,1-.56-.73.64.64,0,0,1,.72-.56l15.84,2.08a.67.67,0,0,1,.56.73.66.66,0,0,1-.65.57" transform="translate(0 0)" fill="#5700ff" fill-rule="evenodd"/><path d="M47.54,39.52c-.27,0-.54,0-.83,0a.65.65,0,0,1-.59-.7.63.63,0,0,1,.7-.59c6.06.51,6.94-5.51,7-5.76a.65.65,0,1,1,1.29.18c0,.07-1,6.91-7.54,6.91" transform="translate(0 0)" fill="#5700ff" fill-rule="evenodd"/><path d="M48.59,66.6h-.06a.65.65,0,0,1-.59-.7c.48-5.49-2.94-6.57-3.08-6.62A.65.65,0,0,1,45.21,58s4.6,1.38,4,8a.65.65,0,0,1-.65.59" transform="translate(0 0)" fill="#5700ff" fill-rule="evenodd"/><path d="M122.07,40.94H122c-3.37-.47-5.87-1.8-7.43-4a10.24,10.24,0,0,1-1.65-7.22.63.63,0,0,1,.75-.52.65.65,0,0,1,.53.75,9,9,0,0,0,1.43,6.24c1.35,1.84,3.55,3,6.55,3.41a.65.65,0,0,1,.55.74.65.65,0,0,1-.64.56" transform="translate(0 0)" fill="#5700ff" fill-rule="evenodd"/><path d="M109.26,75.44h-.1a.65.65,0,0,1-.54-.74c1.55-9.65,11.11-9.49,11.23-9.49a.65.65,0,0,1,0,1.3h-.11c-1,0-8.51.26-9.81,8.39a.66.66,0,0,1-.65.55" transform="translate(0 0)" fill="#5700ff" fill-rule="evenodd"/><path d="M89.41,61.78a.66.66,0,0,1-.63-.51.65.65,0,0,1,.49-.78c6.92-1.55,11.77-4.66,13-8.32a5.57,5.57,0,0,0-.46-4.53c-1.63-3-5.79-5.64-11.41-7.15a.64.64,0,0,1-.46-.8.66.66,0,0,1,.8-.46c6,1.61,10.41,4.45,12.22,7.79a6.91,6.91,0,0,1,.54,5.55c-1.36,4.1-6.56,7.54-13.93,9.19l-.15,0" transform="translate(0 0)" fill="#5700ff" fill-rule="evenodd"/><path d="M64.59,59.7a.57.57,0,0,1-.25-.06c-6.65-2.76-9.88-7.2-8.43-11.58,1.2-3.63,5.46-6.71,11.71-8.44a.65.65,0,0,1,.8.45.66.66,0,0,1-.45.8c-5.82,1.62-9.77,4.39-10.83,7.6-1.21,3.67,1.74,7.49,7.7,10a.65.65,0,0,1-.25,1.25" transform="translate(0 0)" fill="#5700ff" fill-rule="evenodd"/><path d="M149.14,19.66l4.88.16h0l14.44,1a3.56,3.56,0,0,0,1.27-.53L152.49,18a10,10,0,0,1-3.35,1.7m19.38,2.44h0l-14.51-1-13.28-.44c-.56,0-.91,0-1,0a.64.64,0,0,1-.61-.67.65.65,0,0,1,.67-.62l.76,0c2.18,0,8.58-.06,11.31-2.57a.68.68,0,0,1,.53-.17l18.71,2.51a.61.61,0,0,1,.47.32.63.63,0,0,1,0,.58,4.09,4.09,0,0,1-3,2.05h-.1" transform="translate(0 0)" fill="#5700ff" fill-rule="evenodd"/><path d="M84.06,55.11a.47.47,0,0,0-.12.09,4.83,4.83,0,0,1-2.1,1.22l.07-1V55.3a8.09,8.09,0,0,0,2.34-1,6.19,6.19,0,0,1-.19.77Zm-2.34,3,.06-.82a7.43,7.43,0,0,0,1.51-.61,5.34,5.34,0,0,1-1.57,1.43Zm-.65-1.43a11.09,11.09,0,0,1-2.37.27l.09-1.24a12.73,12.73,0,0,0,2.36-.2Zm-.13,1.84a7.09,7.09,0,0,1-2.38.54l.09-1.34A12.57,12.57,0,0,0,81,57.43Zm-3-1.59a10.43,10.43,0,0,1-2.32-.36l.08-1.18a16.08,16.08,0,0,0,2.16.29H78ZM77.8,59a6.61,6.61,0,0,1-2.31-.54.43.43,0,0,0,0-.05l.07-1.11a11.48,11.48,0,0,0,2.32.35Zm-2.91-2.71a5.65,5.65,0,0,1-2.52-1.72h0A6.18,6.18,0,0,1,72.3,54,8.58,8.58,0,0,0,75,55.16Zm-.13,1.8a5.06,5.06,0,0,1-1.89-2,7.21,7.21,0,0,0,2,1ZM85,53.28a.34.34,0,0,0-.25-.13h0a.34.34,0,0,0-.27.1c-3.16,2.68-10.34,1.72-12.27-.41h0l-.09-.06h0a.33.33,0,0,0-.14,0,.4.4,0,0,0-.15,0h0a.35.35,0,0,0-.12.07h0a.31.31,0,0,0-.09.11h0l0,.11v0c-.27,4.41,3.07,6.55,6.32,6.68h.06c3.26.1,6.89-1.8,7.18-6.22a.37.37,0,0,0-.09-.28Z" transform="translate(0 0)" fill="#5700ff" fill-rule="evenodd"/><path d="M72.42,54.54a5.46,5.46,0,0,0,2.42,1.66l.07-1a8.42,8.42,0,0,1-2.54-1.13c0,.16,0,.32,0,.47Zm2.52,1.83-.07,0a5.62,5.62,0,0,1-2.55-1.74v0c0-.21-.06-.42-.07-.63v-.12l.1.07A8.57,8.57,0,0,0,75,55.1h0Zm7-1v0l-.07,1a4.62,4.62,0,0,0,2-1.18.31.31,0,0,1,.11-.09,6.06,6.06,0,0,0,.16-.61,8.37,8.37,0,0,1-2.2.89Zm-.2,1.16.08-1.14v-.11h0a8.49,8.49,0,0,0,2.33-1l.12-.07,0,.13a6.35,6.35,0,0,1-.19.78v0h0a.27.27,0,0,0-.1.08,4.87,4.87,0,0,1-2.14,1.24Zm-6.08,0a11,11,0,0,0,2.2.34L78,55.7h-.1a14.48,14.48,0,0,1-2.11-.28ZM78,57h-.06a10.81,10.81,0,0,1-2.33-.36h0l.1-1.3h.06a13.71,13.71,0,0,0,2.16.29h.22Zm.84-1.23-.08,1.12A11.57,11.57,0,0,0,81,56.59l.07-1.05a13.46,13.46,0,0,1-2.24.18ZM78.64,57l.09-1.36h.09a13.29,13.29,0,0,0,2.32-.19l.07,0-.09,1.29h0A11.41,11.41,0,0,1,78.7,57Zm3.19.32,0,.67a5.27,5.27,0,0,0,1.29-1.15,6.78,6.78,0,0,1-1.25.48Zm-.18.89.07-1h0a7.11,7.11,0,0,0,1.5-.61l.24-.12-.16.21a5.39,5.39,0,0,1-1.59,1.45ZM73,56.28A5,5,0,0,0,74.71,58l.06-.87A7.51,7.51,0,0,1,73,56.28Zm1.78,1.91-.09,0a5,5,0,0,1-1.91-2l-.12-.22.2.15a8.09,8.09,0,0,0,1.95,1h.05Zm.73.24a7,7,0,0,0,2.19.51l.09-1.23a12.66,12.66,0,0,1-2.2-.33l-.08,1Zm2.3.64h0a6.68,6.68,0,0,1-2.33-.54l0,0v0s0,0,0,0l.08-1.18.07,0a12,12,0,0,0,2.31.34H78Zm.85-1.34-.08,1.21a6.89,6.89,0,0,0,2.26-.51L81,57.5a12.61,12.61,0,0,1-2.25.23Zm-.21,1.34.1-1.46h.06A12.82,12.82,0,0,0,81,57.37l.07,0L81,58.51h0a7.19,7.19,0,0,1-2.4.55ZM71.64,53h0a.16.16,0,0,0,0,.09v0A6,6,0,0,0,73,57.61a6.83,6.83,0,0,0,4.83,2.1h.32c3.16,0,6.58-1.9,6.86-6.16a.38.38,0,0,0-.07-.24.28.28,0,0,0-.21-.11h0a.32.32,0,0,0-.23.08C81.34,56,74.11,55,72.16,52.88h0v0l-.06,0h0a.33.33,0,0,0-.24,0h0l-.09,0,0,.1v0s0,0,0,0Zm6.55,6.87h-.33A7,7,0,0,1,73,57.69a6.14,6.14,0,0,1-1.46-4.6v0a.3.3,0,0,1,0-.1h0l0,0a.44.44,0,0,1,.08-.11v-.23l.08.16.08-.05h0a.38.38,0,0,1,.16,0,.42.42,0,0,1,.16,0h0l.09,0h0v0h0c1.92,2.11,9,3.07,12.19.4a.45.45,0,0,1,.31-.11l0,.06v-.06a.42.42,0,0,1,.3.15h0a.43.43,0,0,1,.09.33c-.28,4.34-3.76,6.27-7,6.27Z" transform="translate(0 0)" fill="#5700ff" fill-rule="evenodd"/><path d="M78.52,52.51a2.6,2.6,0,0,1-2.15-1.1c-.83-1.35-.52-2.54,1-3.84a4.85,4.85,0,0,0,1.33-3.1.38.38,0,0,1,.38-.38.37.37,0,0,1,.37.38,5.49,5.49,0,0,1-1.61,3.68c-1.41,1.2-1.36,2-.83,2.84a1.91,1.91,0,0,0,1.56.75,2,2,0,0,0,1.65-.62.37.37,0,0,1,.53-.07.39.39,0,0,1,0,.54,2.76,2.76,0,0,1-2.29.92" transform="translate(0 0)" fill="#5700ff" fill-rule="evenodd"/><path d="M79.11,44.15h0a.34.34,0,0,0-.33.32,4.76,4.76,0,0,1-1.34,3.14c-1.5,1.28-1.81,2.44-1,3.77a2.55,2.55,0,0,0,2.1,1.07,2.66,2.66,0,0,0,2.24-.9.31.31,0,0,0,0-.45A.29.29,0,0,0,80.5,51a.32.32,0,0,0-.23.13,2,2,0,0,1-1.58.64h-.12A2,2,0,0,1,77,51c-.55-.89-.6-1.68.85-2.92a5.41,5.41,0,0,0,1.58-3.63.31.31,0,0,0-.1-.24.27.27,0,0,0-.19-.08m-.44,8.42h-.15a2.66,2.66,0,0,1-2.2-1.13c-.85-1.38-.53-2.59,1-3.92a4.65,4.65,0,0,0,1.31-3.05.44.44,0,0,1,.44-.44h0a.39.39,0,0,1,.28.12.46.46,0,0,1,.13.32,5.51,5.51,0,0,1-1.63,3.72c-1.37,1.18-1.33,1.93-.82,2.77a1.81,1.81,0,0,0,1.51.72,1.91,1.91,0,0,0,1.6-.6.51.51,0,0,1,.3-.17.45.45,0,0,1,.32.09.46.46,0,0,1,.06.63,2.8,2.8,0,0,1-2.19.94" transform="translate(0 0)" fill="#5700ff" fill-rule="evenodd"/><path d="M73.53,41.74a.76.76,0,1,1,.7.81.75.75,0,0,1-.7-.81" transform="translate(0 0)" fill="#5700ff" fill-rule="evenodd"/><path d="M74.28,41.09a.7.7,0,0,0-.69.65.67.67,0,0,0,.16.51.72.72,0,0,0,.48.24.65.65,0,0,0,.51-.17.68.68,0,0,0,.24-.47.67.67,0,0,0-.16-.51.68.68,0,0,0-.48-.24h-.06m0,1.52h-.06a.82.82,0,0,1-.48-1.44.82.82,0,0,1,.59-.19.82.82,0,0,1,.48,1.43.81.81,0,0,1-.53.2" transform="translate(0 0)" fill="#5700ff" fill-rule="evenodd"/><path d="M83.38,41.76a.77.77,0,0,1,.82-.71.76.76,0,1,1-.82.71" transform="translate(0 0)" fill="#5700ff" fill-rule="evenodd"/><path d="M84.14,41.11a.71.71,0,0,0-.46.17.7.7,0,0,0-.07,1,.68.68,0,0,0,.48.24h0a.7.7,0,0,0,.7-.65.72.72,0,0,0-.17-.51.68.68,0,0,0-.48-.24h0m0,1.52h-.06a.84.84,0,0,1-.56-.28.87.87,0,0,1-.2-.6.81.81,0,0,1,.29-.56.83.83,0,0,1,.59-.2.84.84,0,0,1,.56.28.82.82,0,0,1-.62,1.36" transform="translate(0 0)" fill="#5700ff" fill-rule="evenodd"/></svg>